# xmcd
#
# Track frame offsets:
#	150
#	12612
#	26937
#	38752
#	51780
#	64970
#	76782
#	88895
#	101597
#	112065
#	124235
#	136167
#	147380
#	158635
#	172172
#	183975
#	197050
#	209050
#	220597
#	234017
#	246357
#	259360
#	272665
#	287340
#
# Disc length: 3971 seconds
#
# Revision: 1
# Processed by: cddbd v1.4PL0 Copyright (c) Steve Scherf et al.
# Submitted via: audiograbber 1.80
#
DISCID=690f8118
DTITLE=Eddy Arnold - The Cattle Call
DYEAR=1900
DGENRE=
TTITLE0=Just a Little Lovin' Will Go a Long Way
TTITLE1=My Daddy Is Only a Picture
TTITLE2=A Heart Full of Love (For a Handful of Kisses0
TTITLE3=Then I Turned and Walked Away
TTITLE4=Many Tears Ago
TTITLE5=Don't Rob Another Man's Castle
TTITLE6=There's Not a Thing (I Wouldn't Do For You)
TTITLE7=The Lilly of the Valley
TTITLE8=One Kiss Too Many
TTITLE9=The Echo of Your Footsteps
TTITLE10=I'm Throwing Rice ( At The Girl I Love)
TTITLE11=Show Me the Way Back To Your Heart
TTITLE12=C-H-R-I-S-T-M-A-S
TTITLE13=Will Santy Come To Shanty Town
TTITLE14=There's No Wings On My Angel
TTITLE15=Take Me In Your Arms and Hold Me
TTITLE16=Mama and Daddy Broke My Heart
TTITLE17=Little Angel With the Dirty Face
TTITLE18=Why Should I Cry
TTITLE19=The Prisoner's Song
TTITLE20=Seven Years With the Wrong Woman
TTITLE21=Who At My Door Is Standing
TTITLE22=Rockin' Alone In an Old Rockin' Chair
TTITLE23=The Cattle Call
EXTD=
EXTT0=
EXTT1=
EXTT2=
EXTT3=
EXTT4=
EXTT5=
EXTT6=
EXTT7=
EXTT8=
EXTT9=
EXTT10=
EXTT11=
EXTT12=
EXTT13=
EXTT14=
EXTT15=
EXTT16=
EXTT17=
EXTT18=
EXTT19=
EXTT20=
EXTT21=
EXTT22=
EXTT23=
PLAYORDER=
